<?xml version="1.0" encoding="utf-8"?>
<!-- Generator: Adobe Illustrator 22.0.1, SVG Export Plug-In . SVG Version: 6.00 Build 0)  -->
<svg version="1.1" id="Layer_1" xmlns="http://www.w3.org/2000/svg" xmlns:xlink="http://www.w3.org/1999/xlink" x="0px" y="0px"
	 viewBox="11 -3.8 275.7 189.3" style="enable-background:new 11 -3.8 275.7 189.3;" xml:space="preserve">
<style type="text/css">
	.st0{fill:url(#SVGID_1_);}
	.st1{display:none;fill:#62211C;}
	.st2{display:none;fill:#5C2019;}
	.st3{fill:#FEC20F;}
	.st4{fill:url(#SVGID_2_);}
	.st5{fill:#DFD6EA;}
	.st6{display:none;fill:none;stroke:url(#SVGID_3_);stroke-width:5;stroke-miterlimit:10;}
	.st7{fill:none;stroke:url(#SVGID_4_);stroke-width:5;stroke-miterlimit:10;}
	.st8{fill:none;stroke:url(#SVGID_5_);stroke-width:5;stroke-miterlimit:10;}
	.st9{display:none;fill:#FEC20F;stroke:#695CA8;stroke-width:0.75;stroke-miterlimit:10;}
	.st10{fill:#FEC20F;stroke:#695CA8;stroke-width:0.75;stroke-miterlimit:10;}
	.st11{fill:#695BA8;}
	.st12{fill:#D790BF;}
	.st13{fill:url(#SVGID_6_);}
	.st14{fill:url(#SVGID_7_);}
	.st15{fill:url(#SVGID_8_);}
	.st16{fill:url(#SVGID_9_);}
	.st17{fill:url(#SVGID_10_);}
	.st18{fill:url(#SVGID_11_);}
	.st19{fill:url(#SVGID_12_);}
	.st20{display:none;}
	.st21{fill:url(#SVGID_13_);}
	.st22{fill:#62211C;}
</style>
<title>logo-team</title>
<linearGradient id="SVGID_1_" gradientUnits="userSpaceOnUse" x1="149.5443" y1="120.9501" x2="149.5443" y2="88.6651">
	<stop  offset="0" style="stop-color:#C3383A"/>
	<stop  offset="0.5025" style="stop-color:#ED383A"/>
	<stop  offset="1" style="stop-color:#FAC5C6"/>
</linearGradient>
<path class="st0" d="M149.5,109.2c-5,0-10-1.3-14.3-3.9c-2-1.1-2.3-2.4-0.9-4.3c4.3-5.9,8.7-11.8,13-17.6c1.5-2,3-2.1,4.5,0
	c4.4,5.9,8.7,11.7,13,17.6c1.4,2,1.1,3.1-1,4.4C159.5,108,154.5,109.3,149.5,109.2z M155,100.5c0,1.5,0.2,2.8,1.8,3
	c0.9,0.2,1.8-0.4,2-1.4c0-0.1,0-0.2,0-0.3c0.1-1.2-1.5-3.2-2.6-3.1C154.8,98.7,155,99.8,155,100.5L155,100.5z M144.1,100.5
	c-0.1-0.7,0.2-1.8-1.1-1.9c-1-0.1-2.7,1.9-2.6,3.1c0,0.9,0.7,1.7,1.6,1.8c0.1,0,0.2,0,0.3,0C143.8,103.3,144.1,102.1,144.1,100.5
	L144.1,100.5z M147.9,102.6c0,1.4,0.4,2.3,1.7,2.3c0.9,0.1,1.6-0.6,1.7-1.5c0-0.1,0-0.3,0-0.4c-0.1-1.3-0.3-2.9-1.7-2.9
	S148,101.6,147.9,102.6L147.9,102.6z"/>
<path class="st1" d="M155,100.5c0.1-0.7-0.1-1.8,1.2-1.9c1.1-0.1,2.7,1.9,2.6,3.1c0,0.9-0.7,1.7-1.7,1.7c-0.1,0-0.2,0-0.3,0
	C155.2,103.3,154.9,102,155,100.5z"/>
<path class="st1" d="M144.1,100.5c0,1.5-0.2,2.8-1.8,2.9c-0.9,0.1-1.8-0.5-1.9-1.5c0-0.1,0-0.2,0-0.3c-0.1-1.2,1.6-3.2,2.6-3.1
	C144.3,98.8,144,99.9,144.1,100.5z"/>
<path class="st2" d="M147.8,102.6c0.2-1,0.4-2.6,1.7-2.5s1.7,1.6,1.7,2.9c0.2,0.9-0.4,1.7-1.3,1.9c-0.1,0-0.3,0-0.4,0
	C148.2,104.9,147.8,104,147.8,102.6z"/>
<path class="st3" d="M184.2,23.3l-68.5,91.4c-1.4,1.8-4.3,2.2-6.6,0.9l0,0c-2.3-1.3-3.1-3.9-1.7-5.7l68.5-91.4
	c1.4-1.8,4.3-2.2,6.6-0.8l0,0C184.7,19,185.5,21.5,184.2,23.3z"/>
<radialGradient id="SVGID_2_" cx="149.5101" cy="64.5996" r="50.8655" gradientUnits="userSpaceOnUse">
	<stop  offset="0" style="stop-color:#BAB5D9"/>
	<stop  offset="1" style="stop-color:#695BA7"/>
</radialGradient>
<path class="st4" d="M177.3,106.6c0,0-3.6-4.3-6.6-8.1c13.1-3.7,18.1-11.9,18.1-11.9c-3.6,2.4-7.5,4.4-11.5,5.9
	c-4.7,2-9.5,3.4-14.5,4.3c-8.6,1.6-17.3,1.5-25.9-0.1c-5-1-9.9-2.4-14.7-4.3c-2.5-1-4.9-2.1-7.3-3.4c-0.3-0.2-0.6-0.3-0.9-0.5
	c-0.2-0.1-0.3-0.2-0.4-0.3c-1.8-1-2.8-1.7-2.8-1.7s4.8,8,17.5,11.8c-3,3.8-6.7,8.3-6.7,8.3c-22.1-0.7-30.5-15.2-30.5-15.2
	c0-32.2,14.4-58.3,14.4-58.3c14.4-10.8,28.1-10.5,28.1-10.5l1,1.2c-18,5.2-26.3,13.1-26.3,13.1s2.2-1.2,5.9-2.9
	c7.2-3.3,14.8-5.4,22.7-6.3c0.6-0.1,1.1-0.2,1.7-0.2c6.7-0.9,13.5-0.9,20.2-0.2c10.6,1.2,20.8,4.5,30.1,9.6c0,0-7.9-7.5-24.9-12.7
	l1.4-1.6c0,0,13.7-0.3,28.1,10.5c0,0,14.4,26.1,14.4,58.3C207.9,91.4,199.4,105.9,177.3,106.6z"/>
<path class="st5" d="M131.3,44.4c-5.7,0-10.2,5-10.2,11.1s4.6,11.1,10.2,11.1s10.2-5,10.2-11.1S137,44.4,131.3,44.4z M167.8,44.4
	c-5.7,0-10.2,5-10.2,11.1s4.6,11.1,10.2,11.1s10.2-5,10.2-11.1S173.5,44.4,167.8,44.4z"/>
<linearGradient id="SVGID_3_" gradientUnits="userSpaceOnUse" x1="224.5303" y1="-196.705" x2="283.8866" y2="-196.705" gradientTransform="matrix(1 0 0 -1 -194.51 -128.92)">
	<stop  offset="0" style="stop-color:#662D91"/>
	<stop  offset="1" style="stop-color:#CAC7E3"/>
</linearGradient>
<path class="st6" d="M56.9,67.8l27-27c4-4,4-10.4,0-14.4c0,0,0,0,0,0l0,0c-4-4-10.4-4-14.4,0c0,0,0,0,0,0l-34,34
	c-4,4.1-4,10.6,0,14.7l34,34.1c4,4,10.4,4,14.4,0c0,0,0,0,0,0l0,0c4-4,4-10.4,0-14.4c0,0,0,0,0,0L56.9,67.8z"/>
<linearGradient id="SVGID_4_" gradientUnits="userSpaceOnUse" x1="406.0634" y1="-196.675" x2="465.4697" y2="-196.675" gradientTransform="matrix(1 0 0 -1 -194.51 -128.92)">
	<stop  offset="0" style="stop-color:#695BA7"/>
	<stop  offset="1" style="stop-color:#BAB5D9"/>
</linearGradient>
<path class="st7" d="M244,67.8l-27,27c-4,4-4,10.4,0,14.4c0,0,0,0,0,0l0,0c4,4,10.4,4,14.4,0c0,0,0,0,0,0l34.1-34
	c4-4.1,4-10.6,0-14.7l-34.1-34c-4-4-10.4-4-14.4,0c0,0,0,0,0,0l0,0c-4,4-4,10.4,0,14.4c0,0,0,0,0,0L244,67.8z"/>
<linearGradient id="SVGID_5_" gradientUnits="userSpaceOnUse" x1="220.9243" y1="-197.0617" x2="280.3307" y2="-197.0617" gradientTransform="matrix(-1 0 0 -1 306.745 -128.92)">
	<stop  offset="0" style="stop-color:#695BA7"/>
	<stop  offset="1" style="stop-color:#BAB5D9"/>
</linearGradient>
<path class="st8" d="M53.3,68.1l27,27c4,4,4,10.4,0,14.4c0,0,0,0,0,0l0,0c-4,4-10.4,4-14.4,0c0,0,0,0,0,0l-34.1-34
	c-4-4.1-4-10.6,0-14.7l34.1-34c4-4,10.4-4,14.4,0c0,0,0,0,0,0l0,0c4,4,4,10.4,0,14.4c0,0,0,0,0,0L53.3,68.1z"/>
<ellipse class="st9" cx="136.8" cy="55.5" rx="2.9" ry="3.4"/>
<ellipse class="st9" cx="162" cy="55.5" rx="2.9" ry="3.4"/>
<ellipse class="st10" cx="136.7" cy="55.5" rx="2.9" ry="3.4"/>
<ellipse class="st10" cx="173.2" cy="55.5" rx="2.9" ry="3.4"/>
<path class="st11" d="M437.7-103.4v10c-0.6,0.1-1.2,0.3-1.8,0.3c-0.8,0.1-1.6,0.1-2.4,0.2c-0.7,0-1.4-0.1-2.1-0.2
	c-0.5-0.1-1.1-0.3-1.5-0.7c-0.4-0.3-0.7-0.8-0.9-1.3c-0.2-0.7-0.3-1.4-0.3-2.2v-24.5c0-0.6,0.2-1.2,0.6-1.7c0.5-0.4,1-0.8,1.6-1
	c1.3-0.4,2.7-0.7,4.1-0.9c1.7-0.2,3.3-0.3,5-0.3c4.8,0,8.4,1,10.8,3c2.4,2,3.8,5,3.7,8.2c0.1,2-0.5,3.9-1.7,5.5
	c-1,1.5-2.4,2.7-4,3.6c1.3,1.7,2.5,3.3,3.7,4.8c1.1,1.3,2,2.6,2.9,4.1c-0.3,1.1-1,2.1-1.9,2.8c-0.9,0.6-2,1-3.1,1
	c-0.7,0-1.3-0.1-2-0.3c-0.5-0.2-1-0.4-1.5-0.7c-0.4-0.3-0.8-0.7-1.1-1.1c-0.4-0.5-0.7-1-1-1.5l-4.4-7L437.7-103.4z M441-110.3
	c1.1,0.1,2.2-0.3,3.1-1c0.8-0.8,1.2-1.9,1.1-3c0.1-1.1-0.4-2.3-1.3-3c-1.2-0.8-2.6-1.1-4-1c-0.4,0-0.8,0-1.2,0.1
	c-0.3,0-0.7,0.1-1,0.2v7.8L441-110.3z"/>
<path class="st11" d="M484.7-93.2c-0.5,0.1-1.1,0.2-1.6,0.3c-0.8,0.1-1.5,0.2-2.3,0.2c-0.7,0-1.4,0-2.1-0.2
	c-0.6-0.1-1.1-0.3-1.5-0.6c-0.4-0.3-0.8-0.8-1-1.3c-0.2-0.7-0.4-1.4-0.3-2.1v-11.6c0.1-1.1-0.3-2.2-1.1-3c-0.8-0.6-1.7-0.9-2.7-0.9
	c-0.7,0-1.3,0.1-2,0.3c-0.5,0.1-1,0.3-1.5,0.6v18.2c-0.5,0.1-1.1,0.2-1.6,0.3c-0.8,0.1-1.5,0.2-2.3,0.2c-0.7,0-1.4,0-2.1-0.2
	c-0.6-0.1-1.1-0.3-1.5-0.6c-0.4-0.3-0.8-0.8-1-1.3c-0.2-0.7-0.4-1.4-0.3-2.1v-30.2l1.7-0.3c0.8-0.1,1.5-0.2,2.3-0.2
	c0.7,0,1.4,0,2.1,0.2c0.6,0.1,1.1,0.3,1.5,0.6c0.4,0.3,0.8,0.8,1,1.3c0.3,0.7,0.4,1.4,0.3,2.1v5.1c0.7-0.2,1.4-0.4,2.1-0.6
	c1-0.2,2-0.3,3.1-0.3c3.4,0,6.1,0.9,8,2.6c1.9,1.7,2.9,4.3,2.9,7.7L484.7-93.2z"/>
<path class="st11" d="M501.8-119.3c2,0,3.9,0.3,5.8,0.8c1.7,0.5,3.3,1.3,4.6,2.5c1.3,1.2,2.3,2.6,3,4.2c0.8,1.9,1.1,4,1.1,6
	c0,2-0.3,4-0.9,5.8c-0.6,1.6-1.5,3-2.7,4.2c-1.2,1.1-2.6,2-4.1,2.5c-1.7,0.6-3.6,0.9-5.4,0.8c-1.4,0-2.8-0.2-4.2-0.7v8.6
	c-0.5,0.1-1.1,0.3-1.7,0.3c-0.8,0.1-1.6,0.2-2.4,0.2c-0.7,0-1.4,0-2.1-0.2c-0.6-0.1-1.1-0.3-1.5-0.6c-0.4-0.3-0.7-0.8-0.9-1.3
	c-0.2-0.7-0.3-1.4-0.3-2.1v-25c0-0.8,0.2-1.6,0.6-2.3c0.4-0.6,1-1.2,1.6-1.6c1.2-0.8,2.6-1.3,4-1.7
	C498.2-119.1,500-119.3,501.8-119.3z M501.9-99.4c3.6,0,5.3-2.1,5.3-6.4c0-2.2-0.4-3.9-1.3-5c-1-1.1-2.4-1.7-3.8-1.6
	c-0.6,0-1.2,0.1-1.8,0.2c-0.5,0.1-0.9,0.3-1.4,0.6v11.5c0.4,0.2,0.9,0.4,1.4,0.5C500.8-99.4,501.3-99.4,501.9-99.4L501.9-99.4z"/>
<path class="st12" d="M526-116.8c-0.3-0.5-0.5-1-0.7-1.5c-0.2-0.6-0.3-1.3-0.3-2c-0.1-1,0.2-2,0.9-2.8c0.6-0.6,1.4-0.9,2.3-0.8h21.7
	c0.6,1.1,0.9,2.3,0.9,3.5c0.1,1-0.2,2-0.9,2.8c-0.6,0.6-1.4,0.9-2.3,0.8h-5.5v23c-0.6,0.1-1.1,0.2-1.7,0.3c-0.8,0.1-1.5,0.2-2.3,0.1
	c-0.7,0-1.4,0-2-0.2c-0.5-0.1-1-0.3-1.5-0.6c-0.4-0.3-0.7-0.7-0.9-1.2c-0.2-0.7-0.3-1.4-0.3-2.1v-19.2H526z"/>
<path class="st12" d="M564.1-93.5c-1.8,0-3.7-0.3-5.4-0.8c-1.6-0.5-3.1-1.4-4.4-2.5c-1.3-1.1-2.3-2.5-2.9-4.1
	c-0.7-1.8-1.1-3.8-1.1-5.8c-0.1-1.9,0.3-3.9,1.1-5.6c0.6-1.5,1.6-2.8,2.8-3.9c1.2-1,2.5-1.8,4-2.2c1.5-0.5,3-0.7,4.6-0.7
	c1.6,0,3.3,0.3,4.8,0.8c1.4,0.5,2.6,1.2,3.7,2.2c1,0.9,1.9,2.1,2.4,3.3c0.6,1.3,0.9,2.8,0.9,4.3c0.1,1-0.3,1.9-1,2.6
	c-0.7,0.6-1.7,1-2.6,1.1l-12.3,1.8c0.4,1.1,1.2,2,2.2,2.5c1.2,0.6,2.5,0.8,3.9,0.8c1.3,0,2.6-0.2,3.9-0.5c1-0.3,2-0.7,3-1.2
	c0.5,0.4,1,0.8,1.3,1.4c1.1,1.7,0.5,4-1.2,5c-0.1,0.1-0.2,0.1-0.4,0.2c-1.1,0.6-2.3,1-3.6,1.1C566.6-93.6,565.4-93.5,564.1-93.5z
	 M562.8-113c-0.7,0-1.4,0.1-2.1,0.4c-0.5,0.3-1,0.6-1.4,1.1c-0.4,0.4-0.6,0.9-0.8,1.4c-0.2,0.5-0.3,1-0.3,1.6l8.5-1.4
	c-0.1-0.8-0.5-1.4-1.1-2C564.9-112.7,563.8-113.1,562.8-113z"/>
<path class="st12" d="M588.6-119.2c1.6,0,3.3,0.2,4.9,0.6c1.4,0.3,2.6,0.9,3.8,1.7c1,0.7,1.9,1.7,2.4,2.8c0.6,1.3,0.9,2.7,0.8,4.1
	V-99c0,0.8-0.2,1.5-0.7,2.1c-0.5,0.6-1.1,1-1.7,1.4c-2.1,1.3-5.2,1.9-9.1,1.9c-1.6,0-3.2-0.2-4.8-0.5c-1.3-0.3-2.5-0.8-3.6-1.5
	c-1-0.6-1.8-1.5-2.3-2.5c-0.6-1.1-0.9-2.3-0.8-3.6c-0.1-2,0.6-3.9,2-5.3c1.8-1.4,4-2.2,6.3-2.3l6.5-0.7v-0.4c0-0.9-0.5-1.7-1.3-2.1
	c-1.2-0.5-2.4-0.7-3.7-0.6c-1.2,0-2.5,0.1-3.7,0.4c-1.1,0.2-2.2,0.6-3.2,1c-0.5-0.4-0.8-0.8-1.1-1.4c-0.3-0.6-0.4-1.2-0.4-1.9
	c0-0.7,0.2-1.5,0.6-2.1c0.5-0.6,1.2-1,1.9-1.3c1.1-0.4,2.2-0.7,3.4-0.8C586.2-119.1,587.4-119.2,588.6-119.2z M589-99.7
	c0.6,0,1.3-0.1,1.9-0.2c0.5-0.1,1-0.2,1.5-0.5v-4l-3.6,0.3c-0.8,0-1.6,0.2-2.3,0.6c-0.6,0.3-0.9,0.9-0.9,1.5c0,0.6,0.3,1.2,0.8,1.6
	C587.2-99.8,588.1-99.6,589-99.7z"/>
<path class="st12" d="M617.3-119.2c1.4,0,2.7,0.2,4,0.6c1.2,0.3,2.4,0.9,3.4,1.7c1-0.7,2.2-1.2,3.4-1.6c2.7-0.8,5.5-0.9,8.2-0.1
	c1.2,0.3,2.2,0.8,3.2,1.6c1,0.7,1.8,1.7,2.3,2.9c0.6,1.3,0.9,2.8,0.8,4.3v15.7c-0.5,0.1-1,0.2-1.6,0.3c-0.7,0.1-1.5,0.2-2.2,0.1
	c-0.7,0-1.3,0-2-0.1c-0.5-0.1-1-0.3-1.5-0.6c-0.4-0.3-0.7-0.7-0.9-1.2c-0.2-0.6-0.3-1.3-0.3-2v-11.9c0.1-0.8-0.2-1.6-0.9-2.1
	c-0.7-0.5-1.5-0.7-2.3-0.7c-1,0-1.9,0.4-2.7,1c0,0.1,0,0.2,0,0.4v16.9c-0.5,0.1-1.1,0.2-1.6,0.3c-0.7,0.1-1.4,0.2-2.1,0.1
	c-0.7,0-1.3,0-2-0.1c-0.5-0.1-1-0.3-1.5-0.6c-0.4-0.3-0.7-0.7-0.9-1.2c-0.2-0.6-0.3-1.3-0.3-2v-11.9c0.1-0.8-0.3-1.6-0.9-2.1
	c-0.6-0.5-1.4-0.7-2.2-0.7c-0.5,0-1,0.1-1.5,0.3c-0.4,0.2-0.8,0.4-1.1,0.5v17.4c-0.5,0.1-1,0.2-1.6,0.3c-0.7,0.1-1.5,0.2-2.2,0.1
	c-0.7,0-1.3,0-2-0.1c-0.5-0.1-1-0.3-1.5-0.6c-0.4-0.3-0.7-0.7-0.9-1.2c-0.2-0.6-0.3-1.3-0.3-2v-15c0-0.8,0.2-1.5,0.6-2.1
	c0.4-0.6,1-1.1,1.6-1.5c1.3-0.9,2.7-1.5,4.2-1.9C613.8-119,615.5-119.2,617.3-119.2z"/>
<g id="rhp_text">
	<linearGradient id="SVGID_6_" gradientUnits="userSpaceOnUse" x1="56.7816" y1="160.1391" x2="56.115" y2="127.8058">
		<stop  offset="0" style="stop-color:#695BA7"/>
		<stop  offset="1" style="stop-color:#BAB5D9"/>
	</linearGradient>
	<path class="st13" d="M52.4,150.8v10c-0.6,0.1-1.2,0.3-1.8,0.3c-0.8,0.1-1.6,0.1-2.4,0.2c-0.7,0-1.4-0.1-2.1-0.2
		c-0.5-0.1-1.1-0.3-1.5-0.7c-0.4-0.3-0.7-0.8-0.9-1.3c-0.2-0.7-0.3-1.4-0.3-2.2v-24.5c0-0.6,0.2-1.2,0.6-1.7c0.5-0.4,1-0.8,1.6-1
		c1.3-0.4,2.7-0.7,4.1-0.9c1.7-0.2,3.3-0.3,5-0.3c4.8,0,8.4,1,10.8,3c2.4,2,3.8,5,3.7,8.2c0.1,2-0.5,3.9-1.7,5.5
		c-1,1.5-2.4,2.7-4,3.6c1.3,1.7,2.5,3.3,3.7,4.8c1.1,1.3,2,2.6,2.9,4.1c-0.3,1.1-1,2.1-1.9,2.8c-0.9,0.6-2,1-3.1,1
		c-0.7,0-1.3-0.1-2-0.3c-0.5-0.2-1-0.4-1.5-0.7c-0.4-0.3-0.8-0.7-1.1-1.1c-0.4-0.5-0.7-1-1-1.5l-4.4-7L52.4,150.8z M55.6,143.8
		c1.1,0.1,2.2-0.3,3.1-1c0.8-0.8,1.2-1.9,1.1-3c0.1-1.1-0.4-2.3-1.3-3c-1.2-0.8-2.6-1.1-4-1c-0.4,0-0.8,0-1.2,0.1
		c-0.3,0-0.7,0.1-1,0.2v7.8L55.6,143.8z"/>
	<linearGradient id="SVGID_7_" gradientUnits="userSpaceOnUse" x1="87.0231" y1="159.5156" x2="86.3564" y2="127.1822">
		<stop  offset="0" style="stop-color:#695BA7"/>
		<stop  offset="1" style="stop-color:#BAB5D9"/>
	</linearGradient>
	<path class="st14" d="M99.4,160.9c-0.5,0.1-1.1,0.2-1.6,0.3c-0.8,0.1-1.5,0.2-2.3,0.2c-0.7,0-1.4,0-2.1-0.2
		c-0.6-0.1-1.1-0.3-1.5-0.6c-0.4-0.3-0.8-0.8-1-1.3c-0.2-0.7-0.4-1.4-0.3-2.1v-11.6c0.1-1.1-0.3-2.2-1.1-3c-0.8-0.6-1.7-0.9-2.7-0.9
		c-0.7,0-1.3,0.1-2,0.3c-0.5,0.1-1,0.3-1.5,0.6v18.2c-0.5,0.1-1.1,0.2-1.6,0.3c-0.8,0.1-1.5,0.2-2.3,0.2c-0.7,0-1.4,0-2.1-0.2
		c-0.6-0.1-1.1-0.3-1.5-0.6c-0.4-0.3-0.8-0.8-1-1.3c-0.2-0.7-0.4-1.4-0.3-2.1V127l1.7-0.3c0.8-0.1,1.5-0.2,2.3-0.2
		c0.7,0,1.4,0,2.1,0.2c0.6,0.1,1.1,0.3,1.5,0.6c0.4,0.3,0.8,0.8,1,1.3c0.3,0.7,0.4,1.4,0.3,2.1v5.1c0.7-0.2,1.4-0.4,2.1-0.6
		c1-0.2,2-0.3,3.1-0.3c3.4,0,6.1,0.9,8,2.6c1.9,1.7,2.9,4.3,2.9,7.7L99.4,160.9z"/>
	<linearGradient id="SVGID_8_" gradientUnits="userSpaceOnUse" x1="117.9468" y1="158.878" x2="117.2801" y2="126.5446">
		<stop  offset="0" style="stop-color:#695BA7"/>
		<stop  offset="1" style="stop-color:#BAB5D9"/>
	</linearGradient>
	<path class="st15" d="M116.4,134.9c2,0,3.9,0.3,5.8,0.8c1.7,0.5,3.3,1.3,4.6,2.5c1.3,1.2,2.3,2.6,3,4.2c0.8,1.9,1.1,4,1.1,6
		c0,2-0.3,4-0.9,5.8c-0.6,1.6-1.5,3-2.7,4.2c-1.2,1.1-2.6,2-4.1,2.5c-1.7,0.6-3.6,0.9-5.4,0.8c-1.4,0-2.8-0.2-4.2-0.7v8.6
		c-0.5,0.1-1.1,0.3-1.7,0.3c-0.8,0.1-1.6,0.2-2.4,0.2c-0.7,0-1.4,0-2.1-0.2c-0.6-0.1-1.1-0.3-1.5-0.6c-0.4-0.3-0.7-0.8-0.9-1.3
		c-0.2-0.7-0.3-1.4-0.3-2.1v-25c0-0.8,0.2-1.6,0.6-2.3c0.4-0.6,1-1.2,1.6-1.6c1.2-0.8,2.6-1.3,4-1.7
		C112.8,135,114.6,134.8,116.4,134.9z M116.5,154.8c3.6,0,5.3-2.1,5.3-6.4c0-2.2-0.4-3.9-1.3-5c-1-1.1-2.4-1.7-3.8-1.6
		c-0.6,0-1.2,0.1-1.8,0.2c-0.5,0.1-0.9,0.3-1.4,0.6V154c0.4,0.2,0.9,0.4,1.4,0.5C115.5,154.7,116,154.8,116.5,154.8L116.5,154.8z"/>
	<linearGradient id="SVGID_9_" gradientUnits="userSpaceOnUse" x1="153.073" y1="158.1537" x2="152.4064" y2="125.8204">
		<stop  offset="0" style="stop-color:#695BA7"/>
		<stop  offset="1" style="stop-color:#BAB5D9"/>
	</linearGradient>
	<path class="st16" d="M140.6,137.4c-0.3-0.5-0.5-1-0.7-1.5c-0.2-0.6-0.3-1.3-0.3-2c-0.1-1,0.2-2,0.9-2.8c0.6-0.6,1.4-0.9,2.3-0.8
		h21.7c0.6,1.1,0.9,2.3,0.9,3.5c0.1,1-0.2,2-0.9,2.8c-0.6,0.6-1.4,0.9-2.3,0.8h-5.5v23c-0.6,0.1-1.1,0.2-1.7,0.3
		c-0.8,0.1-1.5,0.2-2.3,0.1c-0.7,0-1.4,0-2-0.2c-0.5-0.1-1-0.3-1.5-0.6c-0.4-0.3-0.7-0.7-0.9-1.2c-0.2-0.7-0.3-1.4-0.3-2.1v-19.2
		H140.6z"/>
	<linearGradient id="SVGID_10_" gradientUnits="userSpaceOnUse" x1="177.3632" y1="157.6529" x2="176.6966" y2="125.3195">
		<stop  offset="0" style="stop-color:#695BA7"/>
		<stop  offset="1" style="stop-color:#BAB5D9"/>
	</linearGradient>
	<path class="st17" d="M178.8,160.6c-1.8,0-3.7-0.3-5.4-0.8c-1.6-0.5-3.1-1.4-4.4-2.5c-1.3-1.1-2.3-2.5-2.9-4.1
		c-0.7-1.8-1.1-3.8-1.1-5.8c-0.1-1.9,0.3-3.9,1.1-5.6c0.6-1.5,1.6-2.8,2.8-3.9c1.2-1,2.5-1.8,4-2.2c1.5-0.5,3-0.7,4.6-0.7
		c1.6,0,3.3,0.3,4.8,0.8c1.4,0.5,2.6,1.2,3.7,2.2c1,0.9,1.9,2.1,2.4,3.3c0.6,1.3,0.9,2.8,0.9,4.3c0.1,1-0.3,1.9-1,2.6
		c-0.7,0.6-1.7,1-2.6,1.1l-12.3,1.8c0.4,1.1,1.2,2,2.2,2.5c1.2,0.6,2.5,0.8,3.9,0.8c1.3,0,2.6-0.2,3.9-0.5c1-0.3,2-0.7,3-1.2
		c0.5,0.4,1,0.8,1.3,1.4c1.1,1.7,0.5,4-1.2,5c-0.1,0.1-0.2,0.1-0.4,0.2c-1.1,0.6-2.3,1-3.6,1.1C181.3,160.6,180.1,160.6,178.8,160.6
		z M177.4,141.1c-0.7,0-1.4,0.1-2.1,0.4c-0.5,0.3-1,0.6-1.4,1.1c-0.4,0.4-0.6,0.9-0.8,1.4c-0.2,0.5-0.3,1-0.3,1.6l8.5-1.4
		c-0.1-0.8-0.5-1.4-1.1-2C179.5,141.4,178.5,141,177.4,141.1z"/>
	<linearGradient id="SVGID_11_" gradientUnits="userSpaceOnUse" x1="203.859" y1="157.1066" x2="203.1923" y2="124.7732">
		<stop  offset="0" style="stop-color:#695BA7"/>
		<stop  offset="1" style="stop-color:#BAB5D9"/>
	</linearGradient>
	<path class="st18" d="M203.3,134.9c1.6,0,3.3,0.2,4.9,0.6c1.4,0.3,2.6,0.9,3.8,1.7c1,0.7,1.9,1.7,2.4,2.8c0.6,1.3,0.9,2.7,0.8,4.1
		v11.1c0,0.8-0.2,1.5-0.7,2.1c-0.5,0.6-1.1,1-1.7,1.4c-2.1,1.3-5.2,1.9-9.1,1.9c-1.6,0-3.2-0.2-4.8-0.5c-1.3-0.3-2.5-0.8-3.6-1.5
		c-1-0.6-1.8-1.5-2.3-2.5c-0.6-1.1-0.9-2.3-0.8-3.6c-0.1-2,0.6-3.9,2-5.3c1.8-1.4,4-2.2,6.3-2.3l6.5-0.7V144c0-0.9-0.5-1.7-1.3-2.1
		c-1.2-0.5-2.4-0.7-3.7-0.6c-1.2,0-2.5,0.1-3.7,0.4c-1.1,0.2-2.2,0.6-3.2,1c-0.5-0.4-0.8-0.8-1.1-1.4c-0.3-0.6-0.4-1.2-0.4-1.9
		c0-0.7,0.2-1.5,0.6-2.1c0.5-0.6,1.2-1,1.9-1.3c1.1-0.4,2.2-0.7,3.4-0.8C200.8,135,202.1,134.9,203.3,134.9z M203.7,154.5
		c0.6,0,1.3-0.1,1.9-0.2c0.5-0.1,1-0.2,1.5-0.5v-4l-3.6,0.3c-0.8,0-1.6,0.2-2.3,0.6c-0.6,0.3-0.9,0.9-0.9,1.5c0,0.6,0.3,1.2,0.8,1.6
		C201.8,154.3,202.8,154.6,203.7,154.5z"/>
	<linearGradient id="SVGID_12_" gradientUnits="userSpaceOnUse" x1="238.9716" y1="156.3826" x2="238.305" y2="124.0493">
		<stop  offset="0" style="stop-color:#695BA7"/>
		<stop  offset="1" style="stop-color:#BAB5D9"/>
	</linearGradient>
	<path class="st19" d="M232,134.9c1.4,0,2.7,0.2,4,0.6c1.2,0.3,2.4,0.9,3.4,1.7c1-0.7,2.2-1.2,3.4-1.6c2.7-0.8,5.5-0.9,8.2-0.1
		c1.2,0.3,2.2,0.8,3.2,1.6c1,0.7,1.8,1.7,2.3,2.9c0.6,1.3,0.9,2.8,0.8,4.3v15.7c-0.5,0.1-1,0.2-1.6,0.3c-0.7,0.1-1.5,0.2-2.2,0.1
		c-0.7,0-1.3,0-2-0.1c-0.5-0.1-1-0.3-1.5-0.6c-0.4-0.3-0.7-0.7-0.9-1.2c-0.2-0.6-0.3-1.3-0.3-2v-11.9c0.1-0.8-0.2-1.6-0.9-2.1
		c-0.7-0.5-1.5-0.7-2.3-0.7c-1,0-1.9,0.4-2.7,1c0,0.1,0,0.2,0,0.4v16.9c-0.5,0.1-1.1,0.2-1.6,0.3c-0.7,0.1-1.4,0.2-2.1,0.1
		c-0.7,0-1.3,0-2-0.1c-0.5-0.1-1-0.3-1.5-0.6c-0.4-0.3-0.7-0.7-0.9-1.2c-0.2-0.6-0.3-1.3-0.3-2v-11.9c0.1-0.8-0.3-1.6-0.9-2.1
		c-0.6-0.5-1.4-0.7-2.2-0.7c-0.5,0-1,0.1-1.5,0.3c-0.4,0.2-0.8,0.4-1.1,0.5v17.4c-0.5,0.1-1,0.2-1.6,0.3c-0.7,0.1-1.5,0.2-2.2,0.1
		c-0.7,0-1.3,0-2-0.1c-0.5-0.1-1-0.3-1.5-0.6c-0.4-0.3-0.7-0.7-0.9-1.2c-0.2-0.6-0.3-1.3-0.3-2v-15c0-0.8,0.2-1.5,0.6-2.1
		c0.4-0.6,1-1.1,1.6-1.5c1.3-0.9,2.7-1.5,4.2-1.9C228.4,135.2,230.2,134.9,232,134.9z"/>
</g>
<g id="ruler" class="st20">
</g>
<image style="display:none;overflow:visible;" width="51" height="16" xlink:href="4DAEBC8F.png"  transform="matrix(1 0 0 1 124 104)">
</image>
<linearGradient id="SVGID_13_" gradientUnits="userSpaceOnUse" x1="149.6043" y1="114.1278" x2="149.1071" y2="95.897">
	<stop  offset="0" style="stop-color:#5ABA52"/>
	<stop  offset="0.9951" style="stop-color:#FFFFFF"/>
</linearGradient>
<path class="st21" d="M149.2,119.7c-8-0.1-15.8-2.4-22.5-6.6c-2.5-1.5-2.7-2.5-1-4.8c2.7-3.5,2.3-4.7,7.5-1.9
	c11.4,6.1,22.8,5.7,34-0.7c2.6-1.5,3.1-1.4,5,1c3.3,4.4,3.2,4.8-1.6,7.5C164.1,117.8,156.7,119.7,149.2,119.7z"/>
<path class="st22" d="M143,98.6c-1-0.1-2.7,1.9-2.6,3.1c0,0.9,0.7,1.7,1.6,1.8c0.1,0,0.2,0,0.3,0c1.6-0.1,1.8-1.4,1.8-2.9l0,0
	C144,99.8,144.3,98.8,143,98.6z"/>
<path class="st22" d="M149.5,100c-1.4,0-1.6,1.6-1.7,2.6l0,0c0,1.4,0.4,2.3,1.7,2.3c0.9,0.1,1.6-0.6,1.7-1.5c0-0.1,0-0.3,0-0.4
	C151.2,101.7,150.9,100.1,149.5,100z"/>
<path class="st22" d="M156.2,98.7c-1.4,0-1.2,1.1-1.3,1.8l0,0c0,1.5,0.2,2.8,1.8,3c0.9,0.2,1.8-0.4,2-1.4c0-0.1,0-0.2,0-0.3
	C158.9,100.6,157.3,98.6,156.2,98.7z"/>
</svg>
